<?xml version="1.0" encoding="UTF-8"?><svg xmlns="http://www.w3.org/2000/svg" xmlns:xlink="http://www.w3.org/1999/xlink" height="417.3" preserveAspectRatio="xMidYMid meet" version="1.0" viewBox="0.0 -11.0 500.0 417.3" width="500.0" zoomAndPan="magnify"><g id="change1_1"><path d="M448.81,101.14c0.3,4.41,0.3,8.82,0.3,13.26c0,135.55-103.19,291.87-291.87,291.87v-0.08 C101.5,406.28,46.92,390.32,0,360.21c8.1,0.97,16.25,1.46,24.42,1.48c46.19,0.04,91.06-15.46,127.4-44 c-43.9-0.83-82.39-29.45-95.84-71.24c15.38,2.97,31.22,2.36,46.31-1.77c-47.86-9.67-82.29-51.72-82.29-100.55c0-0.45,0-0.87,0-1.3 c14.26,7.94,30.23,12.35,46.56,12.84C21.49,125.56,7.6,65.6,34.82,18.71C86.9,82.8,163.74,121.76,246.23,125.88 c-8.27-35.63,3.03-72.96,29.68-98.01c41.32-38.84,106.3-36.85,145.14,4.45c22.97-4.53,44.99-12.96,65.14-24.9 c-7.66,23.75-23.68,43.92-45.09,56.73c20.33-2.4,40.2-7.84,58.91-16.15C486.23,68.64,468.88,86.62,448.81,101.14z" fill="inherit"/></g></svg>